<mxfile host="app.diagrams.net" modified="2020-12-22T06:19:53.030Z" agent="5.0 (Macintosh; Intel Mac OS X 10_15_4) AppleWebKit/537.36 (KHTML, like Gecko) Chrome/87.0.4280.88 Safari/537.36" etag="2mbwVNbdEeLoegkp7v_1" version="14.0.1" type="github">
  <diagram name="Page-1" id="12e1b939-464a-85fe-373e-61e167be1490">
    <mxGraphModel dx="1426" dy="769" grid="1" gridSize="10" guides="1" tooltips="1" connect="1" arrows="1" fold="1" page="1" pageScale="1.5" pageWidth="1169" pageHeight="826" background="#114B5F" math="0" shadow="0">
      <root>
        <mxCell id="0" />
        <mxCell id="1" parent="0" />
        <mxCell id="jGPqVc0cwehEWdZUPi0w-1" value="" style="ellipse;whiteSpace=wrap;html=1;aspect=fixed;rounded=0;sketch=0;strokeColor=#028090;fillColor=#F45B69;fontColor=#E4FDE1;" vertex="1" parent="1">
          <mxGeometry x="510" y="425" width="80" height="80" as="geometry" />
        </mxCell>
        <mxCell id="jGPqVc0cwehEWdZUPi0w-2" value="" style="rounded=1;whiteSpace=wrap;html=1;sketch=0;strokeColor=#028090;fillColor=#F45B69;fontColor=#E4FDE1;" vertex="1" parent="1">
          <mxGeometry x="670" y="380" width="120" height="30" as="geometry" />
        </mxCell>
        <mxCell id="jGPqVc0cwehEWdZUPi0w-3" value="" style="rounded=1;whiteSpace=wrap;html=1;sketch=0;strokeColor=#028090;fillColor=#F45B69;fontColor=#E4FDE1;" vertex="1" parent="1">
          <mxGeometry x="670" y="450" width="120" height="30" as="geometry" />
        </mxCell>
        <mxCell id="jGPqVc0cwehEWdZUPi0w-6" style="edgeStyle=orthogonalEdgeStyle;curved=0;rounded=1;sketch=0;orthogonalLoop=1;jettySize=auto;html=1;exitX=1;exitY=0.5;exitDx=0;exitDy=0;entryX=0;entryY=0.5;entryDx=0;entryDy=0;strokeColor=#028090;fillColor=#F45B69;fontColor=#E4FDE1;" edge="1" parent="1" source="jGPqVc0cwehEWdZUPi0w-4" target="jGPqVc0cwehEWdZUPi0w-5">
          <mxGeometry relative="1" as="geometry" />
        </mxCell>
        <mxCell id="jGPqVc0cwehEWdZUPi0w-4" value="工具链" style="rounded=1;whiteSpace=wrap;html=1;sketch=0;strokeColor=#028090;fillColor=#F45B69;fontColor=#E4FDE1;" vertex="1" parent="1">
          <mxGeometry x="670" y="520" width="120" height="30" as="geometry" />
        </mxCell>
        <mxCell id="jGPqVc0cwehEWdZUPi0w-5" value="工具链" style="rounded=1;whiteSpace=wrap;html=1;sketch=0;strokeColor=#028090;fillColor=#F45B69;fontColor=#E4FDE1;" vertex="1" parent="1">
          <mxGeometry x="850" y="480" width="120" height="30" as="geometry" />
        </mxCell>
      </root>
    </mxGraphModel>
  </diagram>
</mxfile>
